Coordinates
version=1
nRows=5
nColumns=40
inDegrees=yes

Units are S.I. units (second, meters, Newtons, ...)
Angles are in degrees.

endheader
time	pelvis_tilt	pelvis_list	pelvis_rotation	pelvis_tx	pelvis_ty	pelvis_tz	hip_flexion_r	hip_adduction_r	hip_rotation_r	knee_angle_r	knee_angle_r_beta	ankle_angle_r	subtalar_angle_r	mtp_angle_r	hip_flexion_l	hip_adduction_l	hip_rotation_l	knee_angle_l	knee_angle_l_beta	ankle_angle_l	subtalar_angle_l	mtp_angle_l	lumbar_extension	lumbar_bending	lumbar_rotation	arm_flex_r	arm_add_r	arm_rot_r	elbow_flex_r	pro_sup_r	wrist_flex_r	wrist_dev_r	arm_flex_l	arm_add_l	arm_rot_l	elbow_flex_l	pro_sup_l	wrist_flex_l	wrist_dev_l
     19.30500000	     -1.97523421	     -4.68834157	      2.76537043	      0.86181281	      0.92512673	      0.44704195	     19.29044266	      1.15530555	    -11.97112925	     20.33458618	     20.33458618	      5.19468522	     -6.18034695	     -3.19266547	      0.92128500	    -10.34495592	     -7.74147567	     36.68781526	     36.68781526	     14.86358786	     -2.33607711	    -11.68685403	     -6.38680157	      6.03527077	      0.39558063	     -1.52010290	    -13.03354315	     -8.60052135	     33.54821227	     44.81014351	      0.00000000	      0.00000000	     17.35780081	    -13.47975603	     -6.31536322	     63.40358873	     46.10575741	      0.00000000	      0.00000000
     19.31742857	     -1.72907951	     -4.74271340	      3.06185973	      0.86235352	      0.92624113	      0.44919326	     18.31349543	      1.39084231	    -12.18910431	     20.05659393	     20.05659393	      5.47783072	     -6.20979929	     -3.74069562	      2.23507270	    -10.67645485	     -6.35164465	     39.48461899	     39.48461899	      8.49678504	     -7.38891839	    -21.22474262	     -6.58660804	      6.09028079	      1.26571665	     -1.39629066	    -13.84616211	     -7.55419845	     37.59864527	     44.67299468	      0.00000000	      0.00000000	     17.68427858	    -12.34782862	     -6.28277615	     59.13746297	     46.13489251	      0.00000000	      0.00000000
     19.32985714	     -1.66112433	     -4.99967647	      3.41044690	      0.86260359	      0.92695813	      0.45148883	     17.47882619	      1.84422821	    -12.55249447	     19.63025868	     19.63025868	      5.82515205	     -6.07040298	     -3.87325854	      4.46880902	    -11.42751169	     -5.14947365	     43.80942094	     43.80942094	      5.89703451	     -9.21490755	    -21.19099503	     -6.60370719	      6.28983959	      1.08409070	      0.39151782	    -14.15197891	     -7.63477194	     38.96322098	     44.65449872	      0.00000000	      0.00000000	     16.25008008	    -12.26077073	     -5.89517462	     57.75709393	     46.09053998	      0.00000000	      0.00000000
     19.34228571	     -1.58955620	     -5.17482084	      3.75585962	      0.86259605	      0.92757271	      0.45366133	     16.68506355	      2.19554735	    -12.92760858	     19.25990245	     19.25990245	      6.14920627	     -5.87480660	     -4.07140142	      6.80709994	    -11.87830847	     -3.68412320	     48.06236796	     48.06236796	      3.02234986	    -11.43537259	    -20.56132210	     -6.65662913	      6.39241455	      0.95651745	      2.15576436	    -14.47437187	     -7.65797356	     40.67585930	     44.62083406	      0.00000000	      0.00000000	     15.04704338	    -12.08987340	     -5.56666806	     55.89066885	     46.04800518	      0.00000000	      0.00000000
     19.35471429	     -1.49655346	     -5.30909311	      4.07844090	      0.86236894	      0.92808816	      0.45569190	     15.93587406	      2.45971588	    -13.42468720	     19.00247416	     19.00247416	      6.44354732	     -5.48349739	     -4.52765249	      9.22984065	    -12.13718501	     -2.17570386	     52.29372520	     52.29372520	      0.63305568	    -13.19482209	    -18.34903085	     -6.76164363	      6.47870226	      1.46514284	      3.07124990	    -15.17520315	     -7.30401756	     43.74097545	     44.55701480	      0.00000000	      0.00000000	     14.69842882	    -11.47446945	     -5.08825599	     52.62295528	     46.01703226	      0.00000000	      0.00000000
